<svg width="66" height="66" viewBox="0 0 66 66" fill="none" xmlns="http://www.w3.org/2000/svg">
<mask id="path-1-inside-1_978_1047" fill="white">
<path d="M0 33C0 14.7746 14.7746 0 33 0V0C51.2254 0 66 14.7746 66 33V33C66 51.2254 51.2254 66 33 66V66C14.7746 66 0 51.2254 0 33V33Z"/>
</mask>
<path d="M0 33C0 14.7746 14.7746 0 33 0V0C51.2254 0 66 14.7746 66 33V33C66 51.2254 51.2254 66 33 66V66C14.7746 66 0 51.2254 0 33V33Z" fill="#E20010" fill-opacity="0.05"/>
<path d="M0 33M66 33M66 33M0 33M33 0M66 33M33 66M0 33M33 66V65.3333C15.1428 65.3333 0.666667 50.8572 0.666667 33H0H-0.666667C-0.666667 51.5936 14.4064 66.6667 33 66.6667V66ZM66 33H65.3333C65.3333 50.8572 50.8572 65.3333 33 65.3333V66V66.6667C51.5936 66.6667 66.6667 51.5936 66.6667 33H66ZM33 0V0.666667C50.8572 0.666667 65.3333 15.1428 65.3333 33H66H66.6667C66.6667 14.4064 51.5936 -0.666667 33 -0.666667V0ZM33 0V-0.666667C14.4064 -0.666667 -0.666667 14.4064 -0.666667 33H0H0.666667C0.666667 15.1428 15.1428 0.666667 33 0.666667V0Z" fill="#FFACA7" mask="url(#path-1-inside-1_978_1047)"/>
<path d="M32.9999 36.2737C33.8511 36.2749 34.6679 35.9379 35.2707 35.337C35.8735 34.736 36.2129 33.9203 36.2144 33.0691C36.2128 32.2181 35.8732 31.4025 35.2704 30.8018C34.6677 30.201 33.851 29.8641 32.9999 29.8652C32.1491 29.8643 31.3327 30.2011 30.7301 30.8018C30.1275 31.4024 29.788 32.2176 29.7861 33.0684C29.7874 33.9196 30.1267 34.7354 30.7294 35.3365C31.3321 35.9376 32.1488 36.2747 32.9999 36.2737Z" stroke="#E20010" stroke-width="2.3" stroke-linejoin="round"/>
<path d="M27.3428 26.6361C23.5718 30.1504 23.5718 35.8497 27.3428 39.364M38.6565 39.364C42.4275 35.8497 42.4275 30.1504 38.6565 26.6361M22.9998 23.1006C17.4773 28.6061 17.4773 37.5326 22.9998 43.0382M42.9996 43.0382C48.5221 37.5326 48.5221 28.6061 42.9996 23.1006" stroke="#E20010" stroke-width="2.3" stroke-linecap="round" stroke-linejoin="round"/>
</svg>
