<svg width="22" height="22" viewBox="0 0 22 22" fill="none" xmlns="http://www.w3.org/2000/svg">
<path d="M10.9997 11.9163C11.5059 11.9163 11.9163 11.5059 11.9163 10.9997C11.9163 10.4934 11.5059 10.083 10.9997 10.083C10.4934 10.083 10.083 10.4934 10.083 10.9997C10.083 11.5059 10.4934 11.9163 10.9997 11.9163Z" stroke="#64748B" stroke-width="3" stroke-linecap="round" stroke-linejoin="round"/>
<path d="M10.9997 5.50033C11.5059 5.50033 11.9163 5.08992 11.9163 4.58366C11.9163 4.0774 11.5059 3.66699 10.9997 3.66699C10.4934 3.66699 10.083 4.0774 10.083 4.58366C10.083 5.08992 10.4934 5.50033 10.9997 5.50033Z" stroke="#64748B" stroke-width="3" stroke-linecap="round" stroke-linejoin="round"/>
<path d="M10.9997 18.3333C11.5059 18.3333 11.9163 17.9229 11.9163 17.4167C11.9163 16.9104 11.5059 16.5 10.9997 16.5C10.4934 16.5 10.083 16.9104 10.083 17.4167C10.083 17.9229 10.4934 18.3333 10.9997 18.3333Z" stroke="#64748B" stroke-width="3" stroke-linecap="round" stroke-linejoin="round"/>
</svg>
