<svg width="20" height="20" viewBox="0 0 20 20" fill="none" xmlns="http://www.w3.org/2000/svg">
<g clip-path="url(#clip0_959_2160)">
<path d="M10.6916 1.81631C10.4744 1.71727 10.2385 1.66602 9.99989 1.66602C9.76123 1.66602 9.52536 1.71727 9.30822 1.81631L2.16656 5.06631C2.01868 5.13152 1.89295 5.23831 1.80469 5.37369C1.71643 5.50907 1.66943 5.6672 1.66943 5.82881C1.66943 5.99043 1.71643 6.14855 1.80469 6.28393C1.89295 6.41931 2.01868 6.52611 2.16656 6.59131L9.31656 9.84965C9.53369 9.94869 9.76956 9.99994 10.0082 9.99994C10.2469 9.99994 10.4828 9.94869 10.6999 9.84965L17.8499 6.59965C17.9978 6.53444 18.1235 6.42765 18.2118 6.29227C18.3 6.15688 18.347 5.99876 18.347 5.83715C18.347 5.67553 18.3 5.51741 18.2118 5.38203C18.1235 5.24665 17.9978 5.13985 17.8499 5.07465L10.6916 1.81631Z" stroke="#6B7280" stroke-width="1.66667" stroke-linecap="round" stroke-linejoin="round"/>
<path d="M1.66651 10C1.66611 10.1594 1.71144 10.3155 1.7971 10.45C1.88277 10.5844 2.00519 10.6914 2.14984 10.7583L9.31651 14.0167C9.53251 14.1145 9.76689 14.1651 10.004 14.1651C10.2411 14.1651 10.4755 14.1145 10.6915 14.0167L17.8415 10.7667C17.989 10.7004 18.114 10.5926 18.2013 10.4564C18.2886 10.3203 18.3345 10.1617 18.3332 10" stroke="#6B7280" stroke-width="1.66667" stroke-linecap="round" stroke-linejoin="round"/>
<path d="M1.66651 14.167C1.66611 14.3264 1.71144 14.4825 1.7971 14.6169C1.88277 14.7514 2.00519 14.8584 2.14984 14.9253L9.31651 18.1837C9.53251 18.2815 9.76689 18.3321 10.004 18.3321C10.2411 18.3321 10.4755 18.2815 10.6915 18.1837L17.8415 14.9337C17.989 14.8674 18.114 14.7596 18.2013 14.6234C18.2886 14.4873 18.3345 14.3287 18.3332 14.167" stroke="#6B7280" stroke-width="1.66667" stroke-linecap="round" stroke-linejoin="round"/>
</g>
<defs>
<clipPath id="clip0_959_2160">
<rect width="20" height="20" fill="white"/>
</clipPath>
</defs>
</svg>
