<svg width="38" height="38" viewBox="0 0 38 38" fill="none" xmlns="http://www.w3.org/2000/svg">
<g clip-path="url(#clip0_1198_1588)">
<g filter="url(#filter0_d_1198_1588)">
<path d="M16.7261 24.9729C19.2682 24.9729 21.429 24.0832 23.2085 22.3037C24.988 20.5242 25.8777 18.3634 25.8777 15.8213C25.8777 13.2792 24.988 11.1184 23.2085 9.3389C21.429 7.55942 19.2682 6.66968 16.7261 6.66968C14.184 6.66968 12.0232 7.55942 10.2437 9.3389C8.4642 11.1184 7.57446 13.2792 7.57446 15.8213C7.57446 18.3634 8.4642 20.5242 10.2437 22.3037C12.0232 24.0832 14.184 24.9729 16.7261 24.9729ZM15.6401 19.9593C15.3472 19.6665 15.2008 19.304 15.2008 18.8718V11.2455C15.2008 10.8133 15.3472 10.4513 15.6401 10.1595C15.9329 9.86766 16.2949 9.72123 16.7261 9.72022C17.1572 9.7192 17.5197 9.86563 17.8136 10.1595C18.1075 10.4534 18.2534 10.8154 18.2513 11.2455V18.8718C18.2513 19.304 18.1049 19.6665 17.8121 19.9593C17.5192 20.2522 17.1572 20.3981 16.7261 20.3971C16.2949 20.3961 15.9329 20.2497 15.6401 19.9578M10.3016 19.9578C10.0088 19.667 9.86237 19.305 9.86237 18.8718V14.296C9.86237 13.8639 10.0088 13.5019 10.3016 13.21C10.5945 12.9182 10.9565 12.7718 11.3876 12.7708C11.8188 12.7697 12.1813 12.9162 12.4752 13.21C12.769 13.5039 12.9149 13.8659 12.9129 14.296V18.8718C12.9129 19.304 12.7665 19.6665 12.4736 19.9593C12.1808 20.2522 11.8188 20.3981 11.3876 20.3971C10.9565 20.3961 10.5945 20.2497 10.3016 19.9578ZM20.9785 19.9578C20.6857 19.667 20.5393 19.305 20.5393 18.8718V15.8213C20.5393 15.3891 20.6857 15.0271 20.9785 14.7353C21.2714 14.4435 21.6334 14.297 22.0645 14.296C22.4957 14.295 22.8582 14.4414 23.152 14.7353C23.4459 15.0292 23.5918 15.3912 23.5898 15.8213V18.8718C23.5898 19.304 23.4434 19.6665 23.1505 19.9593C22.8577 20.2522 22.4957 20.3981 22.0645 20.3971C21.6334 20.3961 21.2714 20.2497 20.9785 19.9578ZM16.7261 28.0234C13.3196 28.0234 10.4343 26.8414 8.07018 24.4772C5.70601 22.113 4.52393 19.2277 4.52393 15.8213C4.52393 12.4149 5.70601 9.52956 8.07018 7.16539C10.4343 4.80122 13.3196 3.61914 16.7261 3.61914C20.1325 3.61914 23.0178 4.80122 25.382 7.16539C27.7461 9.52956 28.9282 12.4149 28.9282 15.8213C28.9282 17.2449 28.706 18.5922 28.2617 19.8633C27.8173 21.1343 27.1879 22.291 26.3734 23.3332L33.9616 30.9215C34.2412 31.2011 34.3811 31.557 34.3811 31.9891C34.3811 32.4213 34.2412 32.7772 33.9616 33.0568C33.682 33.3365 33.3261 33.4763 32.8939 33.4763C32.4618 33.4763 32.1059 33.3365 31.8262 33.0568L24.238 25.4686C23.1958 26.2821 22.0391 26.9115 20.768 27.3569C19.497 27.8023 18.1497 28.0245 16.7261 28.0234Z" fill="white"/>
</g>
</g>
<defs>
<filter id="filter0_d_1198_1588" x="0.523926" y="3.61914" width="37.8569" height="37.8574" filterUnits="userSpaceOnUse" color-interpolation-filters="sRGB">
<feFlood flood-opacity="0" result="BackgroundImageFix"/>
<feColorMatrix in="SourceAlpha" type="matrix" values="0 0 0 0 0 0 0 0 0 0 0 0 0 0 0 0 0 0 127 0" result="hardAlpha"/>
<feOffset dy="4"/>
<feGaussianBlur stdDeviation="2"/>
<feComposite in2="hardAlpha" operator="out"/>
<feColorMatrix type="matrix" values="0 0 0 0 0 0 0 0 0 0 0 0 0 0 0 0 0 0 0.25 0"/>
<feBlend mode="normal" in2="BackgroundImageFix" result="effect1_dropShadow_1198_1588"/>
<feBlend mode="normal" in="SourceGraphic" in2="effect1_dropShadow_1198_1588" result="shape"/>
</filter>
<clipPath id="clip0_1198_1588">
<rect width="38" height="38" fill="white"/>
</clipPath>
</defs>
</svg>
