<svg width="30" height="30" viewBox="0 0 30 30" fill="none" xmlns="http://www.w3.org/2000/svg">
<path d="M13.75 13.7257C13.75 13.3942 13.8817 13.0762 14.1161 12.8418C14.3505 12.6074 14.6685 12.4757 15 12.4757C15.3315 12.4757 15.6495 12.6074 15.8839 12.8418C16.1183 13.0762 16.25 13.3942 16.25 13.7257V21.2257C16.25 21.5572 16.1183 21.8752 15.8839 22.1096C15.6495 22.344 15.3315 22.4757 15 22.4757C14.6685 22.4757 14.3505 22.344 14.1161 22.1096C13.8817 21.8752 13.75 21.5572 13.75 21.2257V13.7257ZM15 7.56445C14.6685 7.56445 14.3505 7.69615 14.1161 7.93057C13.8817 8.16499 13.75 8.48293 13.75 8.81445C13.75 9.14597 13.8817 9.46392 14.1161 9.69834C14.3505 9.93276 14.6685 10.0645 15 10.0645C15.3315 10.0645 15.6495 9.93276 15.8839 9.69834C16.1183 9.46392 16.25 9.14597 16.25 8.81445C16.25 8.48293 16.1183 8.16499 15.8839 7.93057C15.6495 7.69615 15.3315 7.56445 15 7.56445Z" fill="#15803D"/>
<path fill-rule="evenodd" clip-rule="evenodd" d="M15 2.5C8.09625 2.5 2.5 8.09625 2.5 15C2.5 21.9037 8.09625 27.5 15 27.5C21.9037 27.5 27.5 21.9037 27.5 15C27.5 8.09625 21.9037 2.5 15 2.5ZM5 15C5 17.6522 6.05357 20.1957 7.92893 22.0711C9.8043 23.9464 12.3478 25 15 25C17.6522 25 20.1957 23.9464 22.0711 22.0711C23.9464 20.1957 25 17.6522 25 15C25 12.3478 23.9464 9.8043 22.0711 7.92893C20.1957 6.05357 17.6522 5 15 5C12.3478 5 9.8043 6.05357 7.92893 7.92893C6.05357 9.8043 5 12.3478 5 15Z" fill="#15803D"/>
</svg>
