<svg width="42" height="42" viewBox="0 0 42 42" fill="none" xmlns="http://www.w3.org/2000/svg">
<path d="M20.9993 0.659914C18.3593 0.56361 16.3149 2.38766 14.1011 3.5338C11.0902 5.31863 7.98964 6.96516 5.03865 8.84253C3.10846 10.4114 2.22162 12.9359 2.42432 15.3738C2.43555 19.6962 2.40192 24.0195 2.4413 28.3413C2.69125 30.9581 4.50578 33.1789 6.84071 34.2736C10.5891 36.4249 14.3154 38.6162 18.0774 40.7424C20.469 41.8329 23.3001 41.3742 25.4157 39.8988C29.153 37.7279 32.9135 35.5955 36.6362 33.4004C38.7776 31.8758 39.7941 29.1941 39.5744 26.6246C39.5631 22.3021 39.5969 17.9788 39.5574 13.6571C39.3072 11.0405 37.493 8.81915 35.1578 7.72494C31.4094 5.57408 27.6824 3.38425 23.9205 1.25784C23.01 0.834887 21.9985 0.662703 20.9994 0.659832M18.6455 11.5446H23.3541V30.4544H18.6455V11.5446ZM24.5707 15.6604H29.277V30.4544H24.5707V15.6604ZM12.7211 23.3779H17.4289V30.4544H12.7211V23.3779Z" fill="white"/>
</svg>
